<?xml version="1.0" encoding="UTF-8"?>
<svg id="Layer_1" data-name="Layer 1" xmlns="http://www.w3.org/2000/svg" viewBox="0 0 497.04 157.82">
  <defs>
    <style>
      .cls-1 {
        font-family: ArialRoundedMTBold, 'Arial Rounded MT Bold';
        font-size: 48px;
      }

      .cls-1, .cls-2 {
        fill: #fff;
      }

      .cls-3 {
        letter-spacing: -.12em;
      }
    </style>
  </defs>
  <text class="cls-1" transform="translate(167.98 65.79)"><tspan x="0" y="0">ALIEN</tspan><tspan x="0" y="57.6">HEA</tspan><tspan class="cls-3" x="103.01" y="57.6">L</tspan><tspan x="126" y="57.6">THCARE</tspan></text>
  <path class="cls-2" d="M121.48,24.52l-1.44-12.86-.08,1.29c-1.36-11-7.43-12.95-14.76-12.95-8.33,0-15.13,2.52-15.13,18,0,4.32,1.71,8.23,4.17,11.62,2.41,3.32,5.57,6.03,9.13,8.08,3.07,1.76,5.98,3.77,8.7,5.99.4-.51,5.68-7.45,7.53-18.27l1.88-.9Z"/>
  <path class="cls-2" d="M120.5,101.51c5.19.27,9.52,2.67,11.26,5.85.68-.99,1.09-2.1,1.15-3.28.25-4.74-5.15-8.87-12.06-9.23-6.91-.36-12.71,3.19-12.95,7.93-.06,1.18.23,2.32.8,3.38,2.06-2.99,6.62-4.92,11.8-4.65Z"/>
  <path class="cls-2" d="M70.38,34.93c23.79,17.71,32.83,50.19,19.97,78.23-14.78,32.23-52.89,46.38-85.12,31.6-1.8-.83-3.54-1.73-5.23-2.69,3.56,2.65,7.44,4.97,11.63,6.89,32.23,14.78,70.34.63,85.12-31.6,13.96-30.43,2.12-66.1-26.37-82.43Z"/>
  <path class="cls-2" d="M72.43,35.08c-13.47-.7-26.19,2.8-36.87,9.36,8.99-4.03,19.04-6.04,29.55-5.49,35.41,1.85,62.62,32.05,60.77,67.46-1.14,21.94-13.18,40.73-30.58,51.41,21.29-9.54,36.61-30.38,37.9-55.28,1.85-35.41-25.36-65.61-60.77-67.46Z"/>
  <path class="cls-2" d="M96.57,105.37c-5.19-.27-9.52-2.67-11.26-5.85-.68.99-1.09,2.1-1.15,3.28-.25,4.74,5.15,8.87,12.06,9.23s12.71-3.19,12.96-7.93c.06-1.18-.23-2.32-.8-3.38-2.06,2.99-6.62,4.92-11.8,4.65Z"/>
  <path d="M116.22,18.1s-.81-4.38-3.08-6.44c-3.81-3.46-6.5-3.66-6.5-3.66,0,0-.83,5.13,2.36,7.4s7.21,2.7,7.21,2.7Z"/>
  <path d="M106.55,34.89s1.4-6.87,0-10.4-8.82-6.39-8.82-6.39c0,0,6.14,4.63,6.98,6.73s1.84,10.06,1.84,10.06Z"/>
</svg>