<?xml version="1.0" encoding="UTF-8"?>
<svg id="Layer_1" data-name="Layer 1" xmlns="http://www.w3.org/2000/svg" viewBox="0 0 35.47 42">
  <defs>
    <style>
      .cls-1 {
        fill: #024854;
      }

      .cls-2 {
        fill: #1a9b94;
      }
    </style>
  </defs>
  <path class="cls-2" d="M32.33,6.52l-.38-3.42-.02.34c-.36-2.93-1.98-3.45-3.93-3.45-2.22,0-4.03.67-4.03,4.79,0,1.15.45,2.19,1.11,3.09.64.88,1.48,1.61,2.43,2.15.82.47,1.59,1,2.32,1.59.11-.14,1.51-1.98,2-4.86l.5-.24Z"/>
  <path class="cls-1" d="M32.07,27.01c1.38.07,2.53.71,3,1.56.18-.26.29-.56.31-.87.07-1.26-1.37-2.36-3.21-2.46s-3.38.85-3.45,2.11c-.02.31.06.62.21.9.55-.79,1.76-1.31,3.14-1.24Z"/>
  <path class="cls-2" d="M18.73,9.3c6.33,4.71,8.74,13.36,5.31,20.82-3.93,8.58-14.08,12.34-22.65,8.41-.48-.22-.94-.46-1.39-.72.95.7,1.98,1.32,3.09,1.83,8.58,3.93,18.72.17,22.65-8.41,3.71-8.1.56-17.59-7.02-21.94Z"/>
  <path class="cls-1" d="M19.28,9.34c-3.58-.19-6.97.75-9.81,2.49,2.39-1.07,5.07-1.61,7.87-1.46,9.42.49,16.66,8.53,16.17,17.95-.3,5.84-3.51,10.84-8.14,13.68,5.67-2.54,9.74-8.09,10.09-14.71.49-9.42-6.75-17.46-16.17-17.95Z"/>
  <path class="cls-1" d="M25.7,28.04c-1.38-.07-2.53-.71-3-1.56-.18.26-.29.56-.31.87-.07,1.26,1.37,2.36,3.21,2.46s3.38-.85,3.45-2.11c.02-.31-.06-.62-.21-.9-.55.79-1.76,1.31-3.14,1.24Z"/>
  <path class="cls-1" d="M30.93,4.82s-.21-1.16-.82-1.71c-1.01-.92-1.73-.97-1.73-.97,0,0-.22,1.36.63,1.97s1.92.72,1.92.72Z"/>
  <path class="cls-1" d="M28.36,9.28s.37-1.83,0-2.77-2.35-1.7-2.35-1.7c0,0,1.63,1.23,1.86,1.79s.49,2.68.49,2.68Z"/>
</svg>