<?xml version="1.0" encoding="UTF-8"?>
<svg id="Layer_1" data-name="Layer 1" xmlns="http://www.w3.org/2000/svg" viewBox="0 0 1920 1080">
  <defs>
    <style>
      .cls-1 {
        fill: #1c9c95;
      }

      .cls-2 {
        fill: #044955;
      }
    </style>
  </defs>
  <g>
    <path class="cls-1" d="M611.35,494.87l-4.35-11.44h-37.05l-4.35,11.69c-1.7,4.56-3.15,7.64-4.35,9.23-1.2,1.59-3.17,2.39-5.91,2.39-2.32,0-4.37-.85-6.15-2.55-1.78-1.7-2.67-3.63-2.67-5.78,0-1.24.21-2.53.62-3.85.41-1.33,1.1-3.17,2.05-5.53l23.31-59.17c.66-1.7,1.46-3.74,2.39-6.12.93-2.38,1.93-4.36,2.98-5.94,1.06-1.57,2.44-2.85,4.16-3.82,1.72-.97,3.84-1.46,6.37-1.46s4.71.49,6.43,1.46c1.72.97,3.11,2.23,4.16,3.76,1.06,1.53,1.95,3.18,2.67,4.94.72,1.76,1.65,4.11,2.77,7.05l23.81,58.8c1.86,4.48,2.8,7.73,2.8,9.76s-.88,4.05-2.64,5.81c-1.76,1.76-3.88,2.64-6.37,2.64-1.45,0-2.69-.26-3.73-.78-1.04-.52-1.91-1.22-2.61-2.11-.71-.89-1.46-2.26-2.27-4.1-.81-1.84-1.5-3.47-2.08-4.88ZM574.8,469.57h27.23l-13.74-37.61-13.49,37.61Z"/>
    <path class="cls-1" d="M662.69,423.7v66.32h37.42c2.98,0,5.27.73,6.87,2.18,1.59,1.45,2.39,3.27,2.39,5.47s-.79,4.05-2.36,5.44c-1.58,1.39-3.88,2.08-6.9,2.08h-44.57c-4.02,0-6.91-.89-8.67-2.67-1.76-1.78-2.64-4.66-2.64-8.64v-70.18c0-3.73.84-6.53,2.52-8.39s3.88-2.8,6.62-2.8,5.02.92,6.74,2.77c1.72,1.84,2.58,4.65,2.58,8.42Z"/>
    <path class="cls-1" d="M722.24,495.49v-71.79c0-3.73.85-6.53,2.55-8.39,1.7-1.86,3.89-2.8,6.59-2.8s5.02.92,6.74,2.77c1.72,1.84,2.58,4.65,2.58,8.42v71.79c0,3.77-.86,6.59-2.58,8.45-1.72,1.86-3.97,2.8-6.74,2.8s-4.84-.94-6.56-2.83c-1.72-1.88-2.58-4.69-2.58-8.42Z"/>
    <path class="cls-1" d="M821.38,428.3h-41.58v22.38h38.29c2.82,0,4.92.63,6.31,1.9,1.39,1.26,2.08,2.93,2.08,5s-.68,3.76-2.05,5.07-3.48,1.96-6.34,1.96h-38.29v25.92h43.01c2.9,0,5.09.67,6.56,2.02,1.47,1.35,2.21,3.14,2.21,5.38s-.74,3.91-2.21,5.25c-1.47,1.35-3.66,2.02-6.56,2.02h-50.16c-4.02,0-6.91-.89-8.67-2.67-1.76-1.78-2.64-4.66-2.64-8.64v-68.5c0-2.65.39-4.82,1.18-6.5.79-1.68,2.02-2.9,3.7-3.67,1.68-.77,3.82-1.15,6.43-1.15h48.73c2.94,0,5.13.65,6.56,1.96,1.43,1.31,2.14,3.01,2.14,5.13s-.71,3.88-2.14,5.19c-1.43,1.31-3.62,1.96-6.56,1.96Z"/>
    <path class="cls-1" d="M870.3,423.57l35.49,53.7v-54.2c0-3.52.76-6.16,2.27-7.93,1.51-1.76,3.55-2.64,6.12-2.64s4.74.88,6.28,2.64c1.53,1.76,2.3,4.4,2.3,7.93v71.67c0,8-3.32,12-9.95,12-1.66,0-3.15-.24-4.48-.71-1.33-.48-2.57-1.23-3.73-2.27-1.16-1.04-2.24-2.25-3.23-3.64-.99-1.39-1.99-2.81-2.98-4.26l-34.62-53.08v53.39c0,3.48-.81,6.11-2.42,7.89s-3.69,2.67-6.22,2.67-4.7-.9-6.28-2.7c-1.58-1.8-2.36-4.42-2.36-7.86v-70.3c0-2.98.33-5.32.99-7.02.79-1.86,2.09-3.39,3.92-4.57,1.82-1.18,3.79-1.77,5.91-1.77,1.66,0,3.08.27,4.26.81,1.18.54,2.22,1.26,3.11,2.18.89.91,1.8,2.09,2.73,3.54.93,1.45,1.9,2.96,2.89,4.54Z"/>
    <path class="cls-1" d="M571.63,576.46v26.11h39.84v-26.11c0-3.73.84-6.53,2.52-8.39,1.68-1.86,3.88-2.8,6.62-2.8s5.02.92,6.74,2.77c1.72,1.84,2.58,4.65,2.58,8.42v71.79c0,3.77-.87,6.59-2.61,8.45-1.74,1.87-3.98,2.8-6.71,2.8s-4.99-.94-6.65-2.83c-1.66-1.88-2.49-4.69-2.49-8.42v-30.64h-39.84v30.64c0,3.77-.87,6.59-2.61,8.45-1.74,1.87-3.98,2.8-6.71,2.8s-4.99-.94-6.65-2.83c-1.66-1.88-2.49-4.69-2.49-8.42v-71.79c0-3.73.82-6.53,2.46-8.39,1.64-1.86,3.86-2.8,6.68-2.8s5.02.92,6.74,2.77c1.72,1.84,2.58,4.65,2.58,8.42Z"/>
    <path class="cls-1" d="M709.81,581.06h-41.58v22.38h38.29c2.82,0,4.92.63,6.31,1.9,1.39,1.26,2.08,2.93,2.08,5s-.68,3.76-2.05,5.07c-1.37,1.3-3.48,1.96-6.34,1.96h-38.29v25.92h43.01c2.9,0,5.09.67,6.56,2.02,1.47,1.35,2.21,3.14,2.21,5.38s-.74,3.91-2.21,5.25c-1.47,1.35-3.66,2.02-6.56,2.02h-50.16c-4.02,0-6.91-.89-8.67-2.67-1.76-1.78-2.64-4.66-2.64-8.64v-68.5c0-2.65.39-4.82,1.18-6.5.79-1.68,2.02-2.9,3.7-3.67s3.82-1.15,6.43-1.15h48.73c2.94,0,5.13.65,6.56,1.96,1.43,1.31,2.14,3.01,2.14,5.13s-.71,3.88-2.14,5.19c-1.43,1.31-3.62,1.96-6.56,1.96Z"/>
    <path class="cls-1" d="M792.98,647.63l-4.35-11.44h-37.05l-4.35,11.69c-1.7,4.56-3.15,7.64-4.35,9.23-1.2,1.59-3.17,2.39-5.91,2.39-2.32,0-4.37-.85-6.15-2.55-1.78-1.7-2.67-3.63-2.67-5.78,0-1.24.21-2.53.62-3.85.41-1.33,1.1-3.17,2.05-5.53l23.31-59.17c.66-1.7,1.46-3.74,2.39-6.12.93-2.38,1.93-4.36,2.98-5.94,1.06-1.57,2.44-2.85,4.16-3.82,1.72-.97,3.84-1.46,6.37-1.46s4.71.49,6.43,1.46c1.72.97,3.11,2.23,4.16,3.76,1.06,1.53,1.95,3.18,2.67,4.94.72,1.76,1.65,4.11,2.77,7.05l23.81,58.8c1.86,4.48,2.8,7.73,2.8,9.76s-.88,4.05-2.64,5.81c-1.76,1.76-3.88,2.64-6.37,2.64-1.45,0-2.69-.26-3.73-.78-1.04-.52-1.91-1.22-2.61-2.11-.71-.89-1.46-2.26-2.27-4.1-.81-1.84-1.5-3.47-2.08-4.88ZM756.43,622.33h27.23l-13.74-37.61-13.49,37.61Z"/>
    <path class="cls-1" d="M844.32,576.46v66.32h37.42c2.98,0,5.27.73,6.87,2.17,1.59,1.45,2.39,3.27,2.39,5.47s-.79,4.05-2.36,5.44c-1.58,1.39-3.88,2.08-6.9,2.08h-44.57c-4.02,0-6.91-.89-8.67-2.67-1.76-1.78-2.64-4.66-2.64-8.64v-70.18c0-3.73.84-6.53,2.52-8.39,1.68-1.86,3.88-2.8,6.62-2.8s5.02.92,6.74,2.77c1.72,1.84,2.58,4.65,2.58,8.42Z"/>
    <path class="cls-1" d="M946.38,582.05h-20.14v66.2c0,3.81-.85,6.64-2.55,8.48-1.7,1.84-3.9,2.77-6.59,2.77s-4.96-.93-6.68-2.8c-1.72-1.86-2.58-4.68-2.58-8.45v-66.2h-20.14c-3.15,0-5.49-.69-7.02-2.08-1.53-1.39-2.3-3.22-2.3-5.5s.8-4.23,2.39-5.59c1.6-1.37,3.91-2.05,6.93-2.05h58.68c3.19,0,5.56.71,7.12,2.11,1.55,1.41,2.33,3.25,2.33,5.53s-.79,4.11-2.36,5.5c-1.58,1.39-3.94,2.08-7.09,2.08Z"/>
    <path class="cls-1" d="M985.36,576.46v26.11h39.84v-26.11c0-3.73.84-6.53,2.52-8.39,1.68-1.86,3.88-2.8,6.62-2.8s5.02.92,6.74,2.77c1.72,1.84,2.58,4.65,2.58,8.42v71.79c0,3.77-.87,6.59-2.61,8.45-1.74,1.87-3.98,2.8-6.71,2.8s-4.99-.94-6.65-2.83c-1.66-1.88-2.49-4.69-2.49-8.42v-30.64h-39.84v30.64c0,3.77-.87,6.59-2.61,8.45-1.74,1.87-3.98,2.8-6.71,2.8s-4.99-.94-6.65-2.83c-1.66-1.88-2.49-4.69-2.49-8.42v-71.79c0-3.73.82-6.53,2.46-8.39,1.64-1.86,3.86-2.8,6.68-2.8s5.02.92,6.74,2.77c1.72,1.84,2.58,4.65,2.58,8.42Z"/>
    <path class="cls-1" d="M1141.13,629.17c0,2.9-.71,6.04-2.14,9.42-1.43,3.38-3.68,6.69-6.74,9.95-3.07,3.25-6.98,5.9-11.75,7.93-4.77,2.03-10.32,3.05-16.66,3.05-4.81,0-9.18-.46-13.12-1.37-3.94-.91-7.51-2.33-10.72-4.26-3.21-1.93-6.16-4.46-8.86-7.61-2.4-2.86-4.46-6.06-6.15-9.6-1.7-3.54-2.97-7.32-3.82-11.34-.85-4.02-1.27-8.29-1.27-12.8,0-7.33,1.07-13.9,3.2-19.7,2.13-5.8,5.19-10.76,9.17-14.89,3.98-4.12,8.64-7.26,13.99-9.42s11.04-3.23,17.09-3.23c7.38,0,13.94,1.47,19.7,4.41,5.76,2.94,10.17,6.58,13.24,10.91s4.6,8.42,4.6,12.28c0,2.11-.75,3.98-2.24,5.59-1.49,1.62-3.29,2.42-5.41,2.42-2.36,0-4.13-.56-5.32-1.68-1.18-1.12-2.5-3.05-3.95-5.78-2.4-4.52-5.23-7.89-8.49-10.13-3.25-2.24-7.26-3.36-12.03-3.36-7.58,0-13.62,2.88-18.12,8.64-4.5,5.76-6.74,13.94-6.74,24.55,0,7.09.99,12.98,2.98,17.68s4.81,8.22,8.45,10.54c3.65,2.32,7.91,3.48,12.8,3.48,5.3,0,9.79-1.32,13.46-3.95,3.67-2.63,6.43-6.5,8.3-11.59.79-2.4,1.76-4.36,2.92-5.87,1.16-1.51,3.02-2.27,5.59-2.27,2.2,0,4.08.77,5.66,2.3,1.58,1.53,2.36,3.44,2.36,5.72Z"/>
    <path class="cls-1" d="M1216.03,647.63l-4.35-11.44h-37.05l-4.35,11.69c-1.7,4.56-3.15,7.64-4.35,9.23-1.2,1.59-3.17,2.39-5.91,2.39-2.32,0-4.37-.85-6.15-2.55-1.78-1.7-2.67-3.63-2.67-5.78,0-1.24.21-2.53.62-3.85.41-1.33,1.1-3.17,2.05-5.53l23.31-59.17c.66-1.7,1.46-3.74,2.39-6.12s1.93-4.36,2.98-5.94c1.06-1.57,2.45-2.85,4.17-3.82,1.72-.97,3.84-1.46,6.37-1.46s4.71.49,6.43,1.46c1.72.97,3.11,2.23,4.16,3.76,1.06,1.53,1.95,3.18,2.67,4.94.72,1.76,1.65,4.11,2.77,7.05l23.81,58.8c1.86,4.48,2.8,7.73,2.8,9.76s-.88,4.05-2.64,5.81c-1.76,1.76-3.88,2.64-6.37,2.64-1.45,0-2.69-.26-3.73-.78-1.04-.52-1.91-1.22-2.61-2.11-.71-.89-1.46-2.26-2.27-4.1-.81-1.84-1.5-3.47-2.08-4.88ZM1179.48,622.33h27.22l-13.74-37.61-13.49,37.61Z"/>
    <path class="cls-1" d="M1274.08,618.98h-6.46v29.28c0,3.85-.85,6.69-2.55,8.52s-3.92,2.74-6.65,2.74c-2.94,0-5.22-.95-6.84-2.86-1.62-1.91-2.42-4.7-2.42-8.39v-70.12c0-3.98.89-6.86,2.67-8.64s4.66-2.67,8.64-2.67h30.02c4.14,0,7.69.18,10.63.53,2.94.35,5.59,1.07,7.96,2.14,2.86,1.2,5.39,2.92,7.58,5.16,2.2,2.24,3.86,4.84,5,7.8,1.14,2.96,1.71,6.1,1.71,9.42,0,6.8-1.92,12.22-5.75,16.29-3.83,4.06-9.64,6.94-17.43,8.64,3.27,1.74,6.4,4.31,9.39,7.71,2.98,3.4,5.65,7.01,7.99,10.85,2.34,3.83,4.16,7.29,5.47,10.38,1.31,3.09,1.96,5.21,1.96,6.37s-.38,2.39-1.15,3.57-1.81,2.11-3.14,2.8-2.86,1.03-4.6,1.03c-2.07,0-3.81-.49-5.22-1.46-1.41-.97-2.62-2.21-3.64-3.7-1.02-1.49-2.39-3.69-4.13-6.59l-7.4-12.31c-2.65-4.52-5.03-7.96-7.12-10.32-2.09-2.36-4.22-3.98-6.37-4.85-2.16-.87-4.87-1.3-8.14-1.3ZM1284.65,580.69h-17.03v25.05h16.53c4.43,0,8.16-.38,11.19-1.15,3.02-.77,5.33-2.07,6.93-3.92,1.59-1.84,2.39-4.38,2.39-7.62,0-2.53-.64-4.75-1.93-6.68-1.29-1.93-3.07-3.37-5.35-4.32-2.16-.91-6.4-1.37-12.74-1.37Z"/>
    <path class="cls-1" d="M1400.89,581.06h-41.58v22.38h38.29c2.82,0,4.92.63,6.31,1.9,1.39,1.26,2.08,2.93,2.08,5s-.68,3.76-2.05,5.07c-1.37,1.3-3.48,1.96-6.34,1.96h-38.29v25.92h43.01c2.9,0,5.09.67,6.56,2.02,1.47,1.35,2.21,3.14,2.21,5.38s-.74,3.91-2.21,5.25c-1.47,1.35-3.66,2.02-6.56,2.02h-50.16c-4.02,0-6.91-.89-8.67-2.67-1.76-1.78-2.64-4.66-2.64-8.64v-68.5c0-2.65.39-4.82,1.18-6.5.79-1.68,2.02-2.9,3.7-3.67,1.68-.77,3.82-1.15,6.43-1.15h48.73c2.94,0,5.13.65,6.56,1.96s2.14,3.01,2.14,5.13-.71,3.88-2.14,5.19-3.62,1.96-6.56,1.96Z"/>
  </g>
  <g>
    <path class="cls-1" d="M419.78,395.74l-3.83-34.1-.21,3.42c-3.6-29.17-19.71-34.34-39.14-34.34-22.1,0-40.14,6.67-40.14,47.74,0,11.45,4.53,21.82,11.07,30.81,6.4,8.81,14.77,16,24.22,21.42,8.14,4.67,15.86,9.99,23.08,15.9,1.05-1.35,15.06-19.76,19.97-48.46l4.98-2.39Z"/>
    <path class="cls-2" d="M417.18,599.94c13.75.72,25.25,7.07,29.85,15.51,1.81-2.63,2.89-5.57,3.05-8.7.66-12.57-13.67-23.53-31.99-24.48-18.32-.96-33.7,8.46-34.36,21.02-.16,3.13.6,6.17,2.13,8.97,5.45-7.92,17.55-13.04,31.3-12.33Z"/>
    <path class="cls-1" d="M284.25,423.36c63.09,46.96,87.06,133.12,52.95,207.48-39.2,85.48-140.27,123-225.75,83.8-4.77-2.19-9.39-4.58-13.86-7.14,9.43,7.02,19.73,13.17,30.84,18.27,85.48,39.2,186.55,1.68,225.75-83.8,37.01-80.7,5.63-175.3-69.93-218.61Z"/>
    <path class="cls-2" d="M289.69,423.76c-35.73-1.86-69.45,7.44-97.8,24.83,23.84-10.68,50.5-16.02,78.38-14.57,93.91,4.9,166.07,84.99,161.18,178.91-3.03,58.19-34.94,108.01-81.11,136.35,56.46-25.3,97.08-80.58,100.52-146.61,4.9-93.91-67.27-174.01-161.18-178.91Z"/>
    <path class="cls-2" d="M353.71,610.16c-13.75-.72-25.25-7.07-29.85-15.51-1.81,2.63-2.89,5.57-3.05,8.7-.66,12.57,13.67,23.53,31.99,24.48,18.32.96,33.7-8.46,34.36-21.02.16-3.13-.6-6.17-2.13-8.97-5.45,7.92-17.55,13.04-31.3,12.33Z"/>
    <path class="cls-2" d="M405.83,378.72s-2.14-11.6-8.17-17.08c-10.11-9.17-17.23-9.71-17.23-9.71,0,0-2.2,13.59,6.26,19.64,8.46,6.04,19.13,7.15,19.13,7.15Z"/>
    <path class="cls-2" d="M380.18,423.25s3.7-18.21,0-27.58c-3.7-9.37-23.4-16.95-23.4-16.95,0,0,16.28,12.27,18.51,17.85,2.23,5.58,4.89,26.69,4.89,26.69Z"/>
  </g>
</svg>